<svg width="32.000000" height="32.000000" viewBox="0 0 32 32" fill="none" xmlns="http://www.w3.org/2000/svg" xmlns:xlink="http://www.w3.org/1999/xlink">
	<desc>
			Created with Pixso.
	</desc>
	<defs>
		<clipPath id="clip1328_21">
			<rect id="location" width="32.000000" height="32.000000" fill="white" fill-opacity="0"/>
		</clipPath>
	</defs>
	<rect id="location" width="32.000000" height="32.000000" fill="#FFFFFF" fill-opacity="0"/>
	<g clip-path="url(#clip1328_21)">
		<path id="Vector" d="M16 0C10.37 0 5.68 4.52 5.68 10.31C5.68 12.51 6.34 14.47 7.61 16.31L15.21 28.16C15.57 28.73 16.42 28.73 16.78 28.16L24.41 16.27C25.65 14.51 26.31 12.45 26.31 10.31C26.31 4.62 21.68 0 16 0ZM16 15C13.41 15 11.31 12.89 11.31 10.31C11.31 7.72 13.41 5.62 16 5.62C18.58 5.62 20.68 7.72 20.68 10.31C20.68 12.89 18.58 15 16 15Z" fill="#CD06FF" fill-opacity="1.000000" fill-rule="nonzero"/>
		<path id="Vector" d="M23.32 21.54L18.6 28.92C17.38 30.82 14.6 30.82 13.39 28.92L8.66 21.54C4.5 22.5 1.93 24.26 1.93 26.37C1.93 30.02 9.18 32 16 32C22.81 32 30.06 30.02 30.06 26.37C30.06 24.26 27.49 22.5 23.32 21.54Z" fill="#CD06FF" fill-opacity="1.000000" fill-rule="nonzero"/>
	</g>
</svg>
