<svg width="32.000000" height="24.000244" viewBox="0 0 32 24.0002" fill="none" xmlns="http://www.w3.org/2000/svg" xmlns:xlink="http://www.w3.org/1999/xlink">
	<desc>
			Created with Pixso.
	</desc>
	<defs/>
	<path id="Vector" d="M0.66 1.94C5.05 5.66 12.76 12.21 15.03 14.25C15.33 14.52 15.66 14.66 16 14.66C16.33 14.66 16.66 14.52 16.96 14.25C19.23 12.21 26.94 5.66 31.33 1.94C31.6 1.71 31.64 1.3 31.42 1.02C30.91 0.37 30.15 0 29.33 0L2.66 0C1.84 0 1.08 0.37 0.57 1.02C0.35 1.3 0.39 1.71 0.66 1.94Z" fill="#CD06FF" fill-opacity="1.000000" fill-rule="nonzero"/>
	<path id="Vector" d="M31.61 3.96C31.37 3.85 31.09 3.89 30.9 4.05C26.03 8.18 19.81 13.48 17.86 15.24C16.76 16.23 15.23 16.23 14.13 15.24C12.05 13.36 5.07 7.42 1.09 4.05C0.89 3.89 0.62 3.85 0.38 3.96C0.15 4.07 0 4.3 0 4.56L0 21.33C0 22.8 1.19 24 2.66 24L29.33 24C30.8 24 32 22.8 32 21.33L32 4.56C32 4.3 31.84 4.07 31.61 3.96Z" fill="#CD06FF" fill-opacity="1.000000" fill-rule="nonzero"/>
</svg>
