<svg width="32.000000" height="32.000000" viewBox="0 0 32 32" fill="none" xmlns="http://www.w3.org/2000/svg" xmlns:xlink="http://www.w3.org/1999/xlink">
	<desc>
			Created with Pixso.
	</desc>
	<defs>
		<clipPath id="clip1328_34">
			<rect id="bx:bxs-phone-call" width="32.000000" height="32.000000" fill="white" fill-opacity="0"/>
		</clipPath>
	</defs>
	<rect id="bx:bxs-phone-call" width="32.000000" height="32.000000" fill="#CD06FF" fill-opacity="0"/>
	<g clip-path="url(#clip1328_34)">
		<path id="Vector" d="M26.66 14.66L29.33 14.66C29.33 7.82 24.16 2.66 17.32 2.66L17.32 5.33C22.73 5.33 26.66 9.25 26.66 14.66Z" fill="#CD06FF" fill-opacity="1.000000" fill-rule="nonzero"/>
		<path id="Vector" d="M17.33 10.66C20.13 10.66 21.33 11.86 21.33 14.66L24 14.66C24 10.36 21.63 8 17.33 8L17.33 10.66ZM21.89 17.92C21.63 17.69 21.3 17.56 20.95 17.57C20.61 17.58 20.28 17.73 20.04 17.98L16.85 21.26C16.08 21.11 14.53 20.63 12.94 19.04C11.36 17.45 10.87 15.91 10.73 15.14L14.01 11.95C14.26 11.71 14.4 11.38 14.41 11.04C14.42 10.69 14.3 10.35 14.07 10.1L9.14 4.68C8.91 4.42 8.58 4.27 8.24 4.24C7.89 4.22 7.55 4.34 7.29 4.56L4.39 7.04C4.16 7.28 4.02 7.58 4.01 7.91C3.99 8.24 3.6 16.14 9.73 22.26C15.07 27.6 21.76 28 23.6 28C23.87 28 24.04 27.99 24.08 27.98C24.41 27.97 24.71 27.83 24.94 27.6L27.42 24.7C27.65 24.44 27.76 24.1 27.74 23.75C27.72 23.4 27.57 23.08 27.31 22.85L21.89 17.92Z" fill="#CD06FF" fill-opacity="1.000000" fill-rule="nonzero"/>
	</g>
</svg>
